<?xml version="1.0" standalone="no"?>
<!DOCTYPE svg PUBLIC "-//W3C//DTD SVG 20010904//EN"
 "http://www.w3.org/TR/2001/REC-SVG-20010904/DTD/svg10.dtd">
<svg version="1.0" xmlns="http://www.w3.org/2000/svg"
 width="700.000000pt" height="700.000000pt" viewBox="0 0 700.000000 700.000000"
 preserveAspectRatio="xMidYMid meet">
<metadata>
Created by potrace 1.14, written by Peter Selinger 2001-2017
</metadata>
<g transform="translate(0.000000,700.000000) scale(0.100000,-0.100000)"
fill="#000000" stroke="none">
<path d="M3278 6995 c-1 -1 -42 -5 -89 -9 -47 -4 -95 -8 -105 -10 -10 -2 -48
-7 -84 -12 -36 -4 -67 -8 -70 -9 -3 -1 -25 -5 -50 -9 -25 -4 -101 -21 -170
-38 -69 -16 -135 -31 -147 -34 -40 -8 -264 -84 -367 -126 -135 -54 -353 -160
-449 -220 -43 -26 -81 -48 -84 -48 -9 0 -227 -152 -313 -219 -484 -376 -872
-891 -1100 -1462 -66 -165 -142 -408 -165 -530 -3 -13 -12 -58 -20 -99 -8 -41
-17 -89 -20 -105 -2 -17 -7 -48 -10 -70 -36 -243 -42 -717 -10 -906 2 -13 6
-46 9 -74 47 -408 239 -953 466 -1318 30 -48 60 -95 65 -105 24 -42 133 -191
208 -285 163 -202 344 -382 557 -552 92 -74 370 -265 386 -265 4 0 15 -6 23
-14 30 -27 336 -176 471 -229 249 -99 545 -178 799 -213 25 -3 57 -8 71 -10
163 -25 682 -25 842 1 13 2 46 7 73 10 74 11 87 13 120 19 17 4 46 9 65 12 95
16 309 73 450 121 558 189 1089 541 1480 982 36 41 70 79 76 85 29 30 185 242
240 326 122 187 240 409 315 597 66 163 147 422 175 558 16 75 54 300 60 350
4 33 9 76 11 95 8 71 10 517 3 595 -17 172 -22 220 -25 225 -2 3 -6 30 -10 60
-3 30 -10 71 -15 90 -5 19 -12 51 -15 70 -13 75 -67 275 -106 392 -301 898
-960 1641 -1814 2048 -295 140 -643 249 -945 295 -25 4 -54 9 -65 11 -10 2
-49 6 -85 10 -36 3 -78 8 -95 11 -33 5 -531 13 -537 8z m362 -200 c201 -7 238
-11 420 -41 117 -20 103 -17 235 -49 124 -30 383 -114 463 -151 29 -13 55 -24
58 -24 18 0 322 -161 422 -223 111 -69 275 -185 340 -241 262 -225 429 -401
594 -626 137 -188 299 -474 370 -654 11 -28 26 -64 33 -81 38 -82 141 -429
161 -540 52 -299 63 -413 63 -650 1 -140 -5 -275 -14 -350 -11 -100 -16 -136
-31 -225 -9 -52 -22 -120 -29 -150 -8 -30 -16 -67 -18 -81 -11 -59 -83 -284
-132 -411 -245 -628 -681 -1169 -1245 -1545 -347 -231 -713 -387 -1125 -480
-42 -9 -232 -41 -275 -47 -116 -13 -151 -17 -225 -21 -255 -15 -523 -1 -754
40 -135 24 -144 25 -181 35 -19 5 -46 11 -60 14 -14 2 -81 21 -150 41 -233 67
-558 210 -746 327 -47 29 -93 58 -103 63 -20 11 -99 64 -116 78 -5 4 -35 26
-65 48 -145 107 -250 200 -396 349 -130 134 -168 178 -332 395 -4 6 -32 48
-63 95 -314 480 -497 1027 -534 1595 -5 78 -5 377 0 435 16 187 16 183 42 340
18 112 16 103 42 210 11 47 32 123 46 170 15 47 28 90 29 97 1 7 5 16 9 19 4
4 7 14 7 21 0 8 23 71 51 141 278 695 782 1276 1428 1646 130 75 381 196 404
196 7 0 17 4 22 9 14 13 263 96 375 124 197 50 310 71 440 83 36 3 68 8 71 10
3 2 68 6 145 10 76 3 141 8 142 9 2 2 9 2 15 0 7 -2 82 -6 167 -10z"/>
<path d="M3335 5643 c-22 -2 -87 -10 -145 -19 -692 -101 -1287 -529 -1604
-1154 -95 -186 -176 -424 -200 -585 -3 -22 -8 -53 -11 -70 -21 -119 -29 -496
-12 -545 3 -8 8 -40 12 -70 11 -100 46 -252 86 -374 47 -143 165 -387 244
-506 399 -596 1047 -952 1755 -965 235 -4 410 18 630 80 487 137 919 455 1203
885 168 255 301 604 333 875 3 33 8 69 11 80 2 11 6 92 8 180 14 601 -223
1174 -655 1588 -335 321 -726 513 -1185 583 -100 15 -369 24 -470 17z m483
-213 c769 -142 1438 -798 1597 -1567 25 -120 30 -179 30 -343 0 -178 -6 -236
-41 -373 -59 -239 -165 -426 -339 -603 -271 -274 -629 -408 -1049 -391 -514
20 -1022 277 -1396 707 -12 14 -52 66 -89 115 -192 256 -309 522 -368 840 -26
139 -23 438 5 572 57 266 174 492 345 666 94 95 127 123 217 182 175 115 405
195 625 219 93 10 353 -3 463 -24z"/>
</g>
</svg>
