<svg width="2013" height="7313" viewBox="0 0 2013 7313" fill="none" xmlns="http://www.w3.org/2000/svg">
<circle cx="1660.5" cy="1532.5" r="317.5" fill="#B65E54" fill-opacity="0.12"/>
<circle cx="697.5" cy="2000.5" r="150.5" fill="#BF9CC5" fill-opacity="0.12"/>
<ellipse cx="917.5" cy="2236" rx="213.5" ry="213" fill="#C59C9C" fill-opacity="0.12"/>
<ellipse cx="1045" cy="2583.5" rx="106" ry="106.5" fill="#A6DAF7" fill-opacity="0.12"/>
<ellipse cx="1257" cy="2484.5" rx="161" ry="160.5" fill="#BDFFE7" fill-opacity="0.12"/>
<ellipse cx="1283.5" cy="2856" rx="160.5" ry="161" fill="#DAFFBD" fill-opacity="0.12"/>
<circle cx="977.5" cy="3121.5" r="289.5" fill="#FFEDBD" fill-opacity="0.12"/>
<circle cx="1527.5" cy="3236.5" r="404.5" fill="#FFD0D0" fill-opacity="0.12"/>
<circle cx="342" cy="3670" r="259" fill="#FFD0D6" fill-opacity="0.12"/>
<circle cx="669" cy="3530" r="140" fill="#CCCCCC" fill-opacity="0.12"/>
<circle cx="592.499" cy="5954.5" r="359.103" transform="rotate(77.2506 592.499 5954.5)" fill="#FFD0D6" fill-opacity="0.12"/>
<circle cx="591.617" cy="6534.62" r="398.499" transform="rotate(77.2506 591.617 6534.62)" fill="#E9F9BD" fill-opacity="0.12"/>
<circle cx="716.5" cy="3814.5" r="92.5" fill="#D0EEFF" fill-opacity="0.12"/>
<circle cx="831.5" cy="3778.5" r="66.5" fill="#D0FFDD" fill-opacity="0.12"/>
<circle cx="808" cy="3869" r="54" fill="#FBFFD0" fill-opacity="0.12"/>
<circle cx="1160.56" cy="3824.44" r="171.597" transform="rotate(98.6443 1160.56 3824.44)" fill="#EDD0FF" fill-opacity="0.12"/>
<circle cx="1194.52" cy="4045.39" r="123.365" transform="rotate(98.6443 1194.52 4045.39)" fill="#F2C8A9" fill-opacity="0.12"/>
<circle cx="1035.09" cy="3977.06" r="100.176" transform="rotate(98.6443 1035.09 3977.06)" fill="#E9F18B" fill-opacity="0.12"/>
<circle cx="1411.5" cy="5566.5" r="123.365" transform="rotate(98.6443 1411.5 5566.5)" fill="#F2C8A9" fill-opacity="0.12"/>
<circle cx="1382.43" cy="5707.43" r="68.8584" transform="rotate(98.6443 1382.43 5707.43)" fill="#E9F18B" fill-opacity="0.12"/>
<circle cx="709.765" cy="4195.43" r="213.112" transform="rotate(168.464 709.765 4195.43)" fill="#632DA7" fill-opacity="0.07"/>
<circle cx="1160.43" cy="5683.43" r="213.112" transform="rotate(168.464 1160.43 5683.43)" fill="#632DA7" fill-opacity="0.07"/>
<circle cx="466.756" cy="4329.68" r="153.21" transform="rotate(168.464 466.756 4329.68)" fill="#83FBA4" fill-opacity="0.12"/>
<circle cx="478.104" cy="4114.56" r="124.411" transform="rotate(168.464 478.104 4114.56)" fill="#C6988E" fill-opacity="0.12"/>
<ellipse cx="459" cy="2449.5" rx="459" ry="459.5" fill="#CBC3AD" fill-opacity="0.12"/>
<circle cx="1399.5" cy="1178.5" r="218.5" fill="#E8A228" fill-opacity="0.12"/>
<circle cx="965.5" cy="1532.5" r="265.5" fill="#E5ECE4" fill-opacity="0.12"/>
<circle cx="768.5" cy="721.5" r="721.5" fill="#777D7D" fill-opacity="0.12"/>
<circle cx="1530.5" cy="721.5" r="343.5" fill="#399B72" fill-opacity="0.12"/>
<circle cx="1576.07" cy="4271.04" r="187.5" transform="rotate(-116.215 1576.07 4271.04)" fill="#B65E54" fill-opacity="0.12"/>
<circle cx="773.041" cy="5349.04" r="187.5" transform="rotate(-116.215 773.041 5349.04)" fill="#B65E54" fill-opacity="0.12"/>
<circle cx="1457.26" cy="4501.75" r="129" transform="rotate(-116.215 1457.26 4501.75)" fill="#E8A228" fill-opacity="0.12"/>
<circle cx="668.716" cy="4956.72" r="129" transform="rotate(-116.215 668.716 4956.72)" fill="#E8A228" fill-opacity="0.12"/>
<ellipse cx="1757.41" cy="4639.32" rx="157" ry="156.5" transform="rotate(-116.215 1757.41 4639.32)" fill="#E5ECE4" fill-opacity="0.12"/>
<ellipse cx="616.757" cy="4764.98" rx="157" ry="156.5" transform="rotate(-116.215 616.757 4764.98)" fill="#E5ECE4" fill-opacity="0.12"/>
<circle cx="1379.37" cy="4954.76" r="426" transform="rotate(-116.215 1379.37 4954.76)" fill="#777D7D" fill-opacity="0.12"/>
<ellipse cx="1180.8" cy="4551.5" rx="202.5" ry="203" transform="rotate(-116.215 1180.8 4551.5)" fill="#399B72" fill-opacity="0.12"/>
<ellipse cx="434.573" cy="4955.35" rx="202.5" ry="203" transform="rotate(-116.215 434.573 4955.35)" fill="#399B72" fill-opacity="0.12"/>
<circle cx="1271.18" cy="6571.18" r="619.696" transform="rotate(77.2506 1271.18 6571.18)" fill="#D9F1FF" fill-opacity="0.12"/>
</svg>
