<svg width="48" height="48" viewBox="0 0 48 48" fill="none" xmlns="http://www.w3.org/2000/svg">
<rect width="48" height="48" rx="12" fill="#512DA8"/>
<path d="M13 18.5C13 17.7707 13.2897 17.0712 13.8055 16.5555C14.3212 16.0397 15.0207 15.75 15.75 15.75H32.25C32.9793 15.75 33.6788 16.0397 34.1945 16.5555C34.7103 17.0712 35 17.7707 35 18.5V29.5C35 30.2293 34.7103 30.9288 34.1945 31.4445C33.6788 31.9603 32.9793 32.25 32.25 32.25H15.75C15.0207 32.25 14.3212 31.9603 13.8055 31.4445C13.2897 30.9288 13 30.2293 13 29.5V18.5ZM15.75 17.125C15.3853 17.125 15.0356 17.2699 14.7777 17.5277C14.5199 17.7856 14.375 18.1353 14.375 18.5V18.7984L24 24.5734L33.625 18.7984V18.5C33.625 18.1353 33.4801 17.7856 33.2223 17.5277C32.9644 17.2699 32.6147 17.125 32.25 17.125H15.75ZM33.625 20.4016L27.1515 24.286L33.625 28.2694V20.4016ZM33.5782 29.8561L25.8232 25.0835L24 26.1766L22.1768 25.0835L14.4218 29.8548C14.4999 30.1473 14.6724 30.406 14.9126 30.5904C15.1528 30.7749 15.4471 30.875 15.75 30.875H32.25C32.5527 30.875 32.8469 30.7752 33.087 30.591C33.3272 30.4068 33.4999 30.1485 33.5782 29.8561ZM14.375 28.2694L20.8485 24.286L14.375 20.4016V28.2694Z" fill="white" fill-opacity="0.87"/>
</svg>
