<svg width="1116" height="190" viewBox="0 0 1116 190" fill="none" xmlns="http://www.w3.org/2000/svg">
<g filter="url(#filter0_d_186_297)">
<path d="M6 55C6 32.3726 6 21.0589 13.0294 14.0294C20.0589 7 31.3726 7 54 7H1054C1076.63 7 1087.94 7 1094.97 14.0294C1102 21.0589 1102 32.3726 1102 55V129C1102 151.627 1102 162.941 1094.97 169.971C1087.94 177 1076.63 177 1054 177H54C31.3726 177 20.0589 177 13.0294 169.971C6 162.941 6 151.627 6 129V55Z" fill="white" fill-opacity="0.05" shape-rendering="crispEdges"/>
</g>
<defs>
<filter id="filter0_d_186_297" x="0" y="0" width="1116" height="190" filterUnits="userSpaceOnUse" color-interpolation-filters="sRGB">
<feFlood flood-opacity="0" result="BackgroundImageFix"/>
<feColorMatrix in="SourceAlpha" type="matrix" values="0 0 0 0 0 0 0 0 0 0 0 0 0 0 0 0 0 0 127 0" result="hardAlpha"/>
<feOffset dx="4" dy="3"/>
<feGaussianBlur stdDeviation="5"/>
<feComposite in2="hardAlpha" operator="out"/>
<feColorMatrix type="matrix" values="0 0 0 0 0 0 0 0 0 0 0 0 0 0 0 0 0 0 0.25 0"/>
<feBlend mode="normal" in2="BackgroundImageFix" result="effect1_dropShadow_186_297"/>
<feBlend mode="normal" in="SourceGraphic" in2="effect1_dropShadow_186_297" result="shape"/>
</filter>
</defs>
</svg>
