<svg width="24" height="24" viewBox="0 0 24 24" fill="none" xmlns="http://www.w3.org/2000/svg">
<path d="M11.9999 15.25C12.9027 15.25 13.6701 14.9341 14.302 14.3021C14.9339 13.6702 15.2499 12.9028 15.2499 12C15.2499 11.0973 14.9339 10.3299 14.302 9.69796C13.6701 9.06601 12.9027 8.75004 11.9999 8.75004C11.0971 8.75004 10.3298 9.06601 9.69783 9.69796C9.06589 10.3299 8.74992 11.0973 8.74992 12C8.74992 12.9028 9.06589 13.6702 9.69783 14.3021C10.3298 14.9341 11.0971 15.25 11.9999 15.25ZM11.9999 17.4167C10.5013 17.4167 9.22388 16.8886 8.16763 15.8323C7.11138 14.7761 6.58325 13.4987 6.58325 12C6.58325 10.5014 7.11138 9.224 8.16763 8.16775C9.22388 7.1115 10.5013 6.58337 11.9999 6.58337C13.4985 6.58337 14.776 7.1115 15.8322 8.16775C16.8885 9.224 17.4166 10.5014 17.4166 12C17.4166 13.4987 16.8885 14.7761 15.8322 15.8323C14.776 16.8886 13.4985 17.4167 11.9999 17.4167ZM1.16659 13.0834C0.859641 13.0834 0.602349 12.9796 0.39471 12.7719C0.187071 12.5643 0.083252 12.307 0.083252 12C0.083252 11.6931 0.187071 11.4358 0.39471 11.2282C0.602349 11.0205 0.859641 10.9167 1.16659 10.9167H3.33325C3.6402 10.9167 3.89749 11.0205 4.10513 11.2282C4.31277 11.4358 4.41659 11.6931 4.41659 12C4.41659 12.307 4.31277 12.5643 4.10513 12.7719C3.89749 12.9796 3.6402 13.0834 3.33325 13.0834H1.16659ZM20.6666 13.0834C20.3596 13.0834 20.1024 12.9796 19.8947 12.7719C19.6871 12.5643 19.5833 12.307 19.5833 12C19.5833 11.6931 19.6871 11.4358 19.8947 11.2282C20.1024 11.0205 20.3596 10.9167 20.6666 10.9167H22.8333C23.1402 10.9167 23.3975 11.0205 23.6051 11.2282C23.8128 11.4358 23.9166 11.6931 23.9166 12C23.9166 12.307 23.8128 12.5643 23.6051 12.7719C23.3975 12.9796 23.1402 13.0834 22.8333 13.0834H20.6666ZM11.9999 4.41671C11.693 4.41671 11.4357 4.31289 11.228 4.10525C11.0204 3.89761 10.9166 3.64032 10.9166 3.33337V1.16671C10.9166 0.859763 11.0204 0.602471 11.228 0.394832C11.4357 0.187193 11.693 0.083374 11.9999 0.083374C12.3069 0.083374 12.5642 0.187193 12.7718 0.394832C12.9794 0.602471 13.0833 0.859763 13.0833 1.16671V3.33337C13.0833 3.64032 12.9794 3.89761 12.7718 4.10525C12.5642 4.31289 12.3069 4.41671 11.9999 4.41671ZM11.9999 23.9167C11.693 23.9167 11.4357 23.8129 11.228 23.6052C11.0204 23.3976 10.9166 23.1403 10.9166 22.8334V20.6667C10.9166 20.3598 11.0204 20.1025 11.228 19.8948C11.4357 19.6872 11.693 19.5834 11.9999 19.5834C12.3069 19.5834 12.5642 19.6872 12.7718 19.8948C12.9794 20.1025 13.0833 20.3598 13.0833 20.6667V22.8334C13.0833 23.1403 12.9794 23.3976 12.7718 23.6052C12.5642 23.8129 12.3069 23.9167 11.9999 23.9167ZM5.12075 6.63754L3.95617 5.50004C3.7395 5.30143 3.63568 5.04865 3.64471 4.74171C3.65374 4.43476 3.75756 4.17296 3.95617 3.95629C4.17284 3.73962 4.43464 3.63129 4.74159 3.63129C5.04853 3.63129 5.30131 3.73962 5.49992 3.95629L6.63742 5.12087C6.83603 5.33754 6.93534 5.59032 6.93534 5.87921C6.93534 6.1681 6.83603 6.42087 6.63742 6.63754C6.43881 6.85421 6.19054 6.95803 5.89263 6.949C5.59471 6.93997 5.33742 6.83615 5.12075 6.63754ZM18.4999 20.0438L17.3624 18.8792C17.1638 18.6625 17.0645 18.4052 17.0645 18.1073C17.0645 17.8094 17.1638 17.5612 17.3624 17.3625C17.561 17.1459 17.8093 17.0421 18.1072 17.0511C18.4051 17.0601 18.6624 17.1639 18.8791 17.3625L20.0437 18.5C20.2603 18.6987 20.3642 18.9514 20.3551 19.2584C20.3461 19.5653 20.2423 19.8271 20.0437 20.0438C19.827 20.2605 19.5652 20.3688 19.2583 20.3688C18.9513 20.3688 18.6985 20.2605 18.4999 20.0438ZM17.3624 6.63754C17.1458 6.43893 17.0419 6.19067 17.051 5.89275C17.06 5.59483 17.1638 5.33754 17.3624 5.12087L18.4999 3.95629C18.6985 3.73962 18.9513 3.6358 19.2583 3.64483C19.5652 3.65386 19.827 3.75768 20.0437 3.95629C20.2603 4.17296 20.3687 4.43476 20.3687 4.74171C20.3687 5.04865 20.2603 5.30143 20.0437 5.50004L18.8791 6.63754C18.6624 6.83615 18.4096 6.93546 18.1208 6.93546C17.8319 6.93546 17.5791 6.83615 17.3624 6.63754ZM3.95617 20.0438C3.7395 19.8271 3.63117 19.5653 3.63117 19.2584C3.63117 18.9514 3.7395 18.6987 3.95617 18.5L5.12075 17.3625C5.33742 17.1639 5.59471 17.0646 5.89263 17.0646C6.19054 17.0646 6.43881 17.1639 6.63742 17.3625C6.85409 17.5612 6.9579 17.8094 6.94888 18.1073C6.93985 18.4052 6.83603 18.6625 6.63742 18.8792L5.49992 20.0438C5.30131 20.2605 5.04853 20.3643 4.74159 20.3552C4.43464 20.3462 4.17284 20.2424 3.95617 20.0438Z" fill="black" fill-opacity="0.87"/>
</svg>
