<?xml version="1.0" standalone="no"?>
<!DOCTYPE svg PUBLIC "-//W3C//DTD SVG 20010904//EN"
 "http://www.w3.org/TR/2001/REC-SVG-20010904/DTD/svg10.dtd">
<svg version="1.0" xmlns="http://www.w3.org/2000/svg"
 width="700.000000pt" height="700.000000pt" viewBox="0 0 700.000000 700.000000"
 preserveAspectRatio="xMidYMid meet">
<metadata>
Created by potrace 1.14, written by Peter Selinger 2001-2017
</metadata>
<g transform="translate(0.000000,700.000000) scale(0.100000,-0.100000)"
fill="#000000" stroke="none">
<path d="M3278 6995 c-1 -1 -42 -5 -89 -9 -47 -4 -95 -8 -105 -10 -10 -2 -48
-7 -84 -12 -36 -4 -67 -8 -70 -9 -3 -1 -25 -5 -50 -9 -25 -4 -101 -21 -170
-38 -69 -16 -135 -31 -147 -34 -40 -8 -264 -84 -367 -126 -877 -349 -1594
-1067 -1946 -1949 -66 -165 -142 -408 -165 -530 -3 -13 -12 -58 -20 -99 -8
-41 -17 -89 -20 -105 -2 -17 -7 -48 -10 -70 -36 -243 -42 -717 -10 -906 2 -13
6 -46 9 -74 47 -408 239 -953 466 -1318 30 -48 60 -95 65 -105 24 -42 133
-191 208 -285 163 -202 344 -382 557 -552 92 -74 370 -265 386 -265 4 0 15 -6
23 -14 29 -24 254 -137 392 -196 179 -77 441 -162 602 -196 89 -19 213 -41
276 -50 25 -3 57 -8 71 -10 163 -25 682 -25 842 1 13 2 46 7 73 10 71 10 87
13 115 18 14 3 43 8 65 12 115 21 314 74 455 122 558 189 1089 541 1480 982
36 41 70 79 76 85 29 30 185 242 240 326 122 187 240 409 315 597 66 163 147
422 175 558 16 75 54 300 60 350 4 33 9 76 11 95 8 71 10 517 3 595 -17 172
-22 220 -25 225 -2 3 -6 30 -10 60 -3 30 -10 71 -15 90 -5 19 -12 51 -15 70
-3 19 -19 87 -35 151 -163 647 -525 1249 -1031 1714 -491 452 -1152 771 -1799
870 -25 4 -54 9 -65 11 -10 2 -49 6 -85 10 -36 3 -78 8 -95 11 -33 5 -531 13
-537 8z m362 -200 c201 -7 238 -11 420 -41 117 -20 103 -17 235 -49 124 -30
383 -114 463 -151 29 -13 55 -24 58 -24 18 0 322 -161 422 -223 111 -69 275
-185 340 -241 262 -225 429 -401 594 -626 137 -188 299 -474 370 -654 11 -28
26 -64 33 -81 38 -82 141 -429 161 -540 52 -299 63 -413 63 -650 1 -140 -5
-275 -14 -350 -11 -100 -16 -136 -31 -225 -9 -52 -22 -120 -29 -150 -8 -30
-16 -67 -18 -81 -3 -14 -22 -81 -42 -150 -309 -1035 -1104 -1855 -2130 -2194
-120 -40 -213 -67 -275 -79 -14 -3 -36 -8 -50 -11 -40 -10 -231 -43 -280 -49
-116 -13 -151 -17 -225 -21 -255 -15 -523 -1 -754 40 -135 24 -144 25 -181 35
-19 5 -46 11 -60 14 -14 2 -81 21 -150 41 -233 67 -558 210 -746 327 -47 29
-93 58 -103 63 -20 11 -99 64 -116 78 -5 4 -35 26 -65 48 -145 107 -250 200
-396 349 -130 134 -168 178 -332 395 -4 6 -32 48 -63 95 -315 483 -496 1024
-534 1600 -5 74 -5 374 0 430 16 187 16 183 42 340 18 112 16 103 42 210 11
47 32 123 46 170 15 47 28 90 29 97 1 7 5 16 9 19 4 4 7 14 7 21 0 8 23 71 51
141 278 695 782 1276 1428 1646 130 75 381 196 404 196 7 0 17 4 22 9 14 13
263 96 375 124 197 50 310 71 440 83 36 3 68 8 71 10 3 2 68 6 145 10 76 3
141 8 142 9 2 2 9 2 15 0 7 -2 82 -6 167 -10z"/>
<path d="M3377 5644 c-1 -1 -38 -5 -82 -9 -44 -4 -87 -8 -95 -9 -526 -77
-1003 -342 -1340 -744 -224 -267 -386 -598 -459 -934 -21 -97 -24 -116 -37
-253 -9 -88 -9 -310 -1 -395 45 -442 212 -841 497 -1185 13 -16 74 -79 135
-140 269 -268 596 -455 964 -551 52 -13 106 -26 120 -29 47 -8 86 -15 111 -20
90 -18 386 -25 515 -11 746 77 1380 513 1716 1182 93 186 179 459 204 647 28
221 24 498 -10 667 -2 14 -7 41 -10 60 -35 213 -172 547 -310 755 -135 202
-258 337 -466 510 -199 166 -535 331 -809 397 -137 32 -136 32 -310 54 -50 6
-327 13 -333 8z m378 -198 c17 -4 64 -13 105 -22 671 -141 1257 -663 1494
-1331 30 -86 73 -258 81 -329 3 -28 8 -61 10 -75 6 -29 6 -279 0 -331 -22
-195 -83 -390 -170 -543 -178 -312 -460 -526 -815 -619 -85 -22 -127 -30 -225
-42 -43 -5 -286 -5 -311 0 -12 2 -45 7 -75 11 -30 3 -109 20 -177 36 -221 54
-413 138 -609 269 -432 286 -742 711 -867 1190 -43 166 -51 237 -50 455 1 158
4 194 29 300 61 268 170 470 354 655 156 157 351 273 556 331 38 11 79 22 90
24 50 11 73 15 120 21 28 3 52 8 54 10 7 6 370 -3 406 -10z"/>
</g>
</svg>
