<?xml version="1.0" standalone="no"?>
<!DOCTYPE svg PUBLIC "-//W3C//DTD SVG 20010904//EN"
 "http://www.w3.org/TR/2001/REC-SVG-20010904/DTD/svg10.dtd">
<svg version="1.0" xmlns="http://www.w3.org/2000/svg"
 width="700.000000pt" height="700.000000pt" viewBox="0 0 700.000000 700.000000"
 preserveAspectRatio="xMidYMid meet">
<metadata>
Created by potrace 1.14, written by Peter Selinger 2001-2017
</metadata>
<g transform="translate(0.000000,700.000000) scale(0.100000,-0.100000)"
fill="#000000" stroke="none">
<path d="M3278 6996 c-1 -2 -42 -6 -89 -10 -47 -4 -95 -8 -105 -10 -10 -2 -48
-7 -84 -12 -36 -4 -67 -8 -70 -9 -3 -1 -25 -5 -50 -9 -25 -4 -101 -21 -170
-38 -69 -16 -134 -31 -146 -34 -39 -7 -228 -72 -346 -118 -145 -56 -367 -163
-471 -228 -43 -26 -81 -48 -84 -48 -4 0 -202 -133 -233 -157 -240 -185 -376
-310 -546 -498 -221 -246 -445 -591 -569 -875 -25 -58 -50 -114 -55 -125 -45
-93 -150 -427 -176 -560 -2 -11 -10 -54 -19 -95 -29 -147 -36 -200 -52 -370
-15 -164 -8 -592 12 -711 2 -13 6 -46 9 -74 38 -329 167 -745 339 -1085 61
-122 169 -312 187 -330 3 -3 31 -43 62 -90 170 -255 431 -534 708 -755 92 -74
370 -265 386 -265 4 0 15 -6 23 -14 9 -7 81 -47 161 -88 354 -181 736 -303
1109 -354 25 -3 57 -8 71 -10 163 -25 682 -25 842 1 13 2 46 7 73 10 74 11 87
13 120 19 17 4 46 9 65 12 51 8 213 48 300 74 253 74 522 187 734 309 49 28
91 51 93 51 10 0 268 180 353 247 152 119 324 280 450 422 36 41 70 79 76 85
65 68 263 353 352 508 47 80 182 351 182 364 0 3 8 24 19 47 53 118 147 417
177 562 17 81 54 301 59 350 4 33 9 71 11 85 9 47 11 525 3 605 -15 165 -21
220 -24 225 -2 3 -6 30 -10 60 -9 75 -69 337 -99 435 -175 575 -470 1068 -891
1488 -437 436 -999 757 -1590 906 -118 30 -246 57 -315 66 -19 3 -46 7 -60 10
-13 2 -52 7 -86 11 -33 3 -74 8 -90 10 -33 5 -540 14 -546 10z m512 -310 c14
-2 48 -7 75 -11 75 -9 148 -20 185 -29 14 -3 36 -8 50 -10 88 -14 318 -84 466
-141 421 -163 802 -414 1140 -750 150 -150 219 -227 329 -370 327 -424 565
-990 629 -1501 25 -198 26 -532 2 -659 -2 -11 -7 -45 -11 -75 -10 -84 -60
-285 -95 -391 -152 -446 -445 -829 -833 -1085 -176 -117 -406 -224 -588 -273
-41 -11 -90 -24 -109 -30 -19 -5 -48 -12 -65 -15 -16 -3 -57 -10 -90 -16 -219
-39 -564 -46 -757 -15 -13 2 -43 6 -68 9 -183 23 -449 95 -657 177 -212 83
-438 201 -632 331 -67 45 -278 202 -291 217 -3 3 -27 26 -55 50 -113 99 -272
259 -341 343 -20 23 -53 63 -74 88 -238 281 -477 726 -590 1095 -21 67 -66
244 -74 290 -3 17 -8 39 -10 50 -30 153 -41 288 -41 500 0 159 3 211 20 355 5
43 14 100 20 120 2 8 7 31 10 50 21 123 99 348 175 505 201 413 514 736 923
949 128 67 353 154 442 172 6 1 30 7 55 14 25 7 56 14 70 16 14 3 60 11 104
19 43 8 113 18 155 21 42 4 78 8 79 9 6 5 424 -3 452 -9z"/>
</g>
</svg>
