<svg width="22" height="22" viewBox="0 0 22 22" fill="none" xmlns="http://www.w3.org/2000/svg">
<g clip-path="url(#clip0_186_150)">
<path d="M22 11C22 13.9174 20.8411 16.7153 18.7782 18.7782C16.7153 20.8411 13.9174 22 11 22C8.08262 22 5.28473 20.8411 3.22183 18.7782C1.15893 16.7153 0 13.9174 0 11C0 8.08262 1.15893 5.28473 3.22183 3.22183C5.28473 1.15893 8.08262 0 11 0C13.9174 0 16.7153 1.15893 18.7782 3.22183C20.8411 5.28473 22 8.08262 22 11ZM11.3946 8.12075C10.324 8.56625 8.18538 9.4875 4.97888 10.8845C4.45913 11.0907 4.18642 11.2933 4.16075 11.4922C4.1195 11.8264 4.53888 11.9584 5.1095 12.1385L5.35012 12.2141C5.91113 12.397 6.66737 12.6101 7.05925 12.6184C7.41675 12.6275 7.81458 12.4809 8.25275 12.1784C11.2493 10.1562 12.7958 9.13412 12.892 9.11212C12.9608 9.09562 13.057 9.07638 13.1202 9.13412C13.1835 9.19188 13.178 9.29912 13.1711 9.328C13.1299 9.50537 11.484 11.0344 10.6329 11.8264C10.3675 12.0739 10.1791 12.2485 10.1406 12.2884C10.0559 12.375 9.9697 12.4603 9.88212 12.5441C9.35962 13.0474 8.96912 13.4241 9.90275 14.0401C10.3524 14.3371 10.7126 14.5805 11.0715 14.8252C11.462 15.092 11.8525 15.3574 12.3585 15.6901C12.4868 15.7745 12.6106 15.8602 12.7298 15.9472C13.1849 16.2717 13.596 16.5632 14.1006 16.5165C14.3949 16.489 14.6988 16.214 14.8527 15.389C15.2171 13.4406 15.9335 9.22075 16.0985 7.48137C16.1089 7.33679 16.1029 7.19149 16.0806 7.04825C16.0673 6.93276 16.0114 6.82638 15.9239 6.74988C15.7986 6.66385 15.6496 6.61914 15.4976 6.622C15.0851 6.62887 14.4485 6.85025 11.3946 8.12075Z" fill="white" fill-opacity="0.87"/>
</g>
<defs>
<clipPath id="clip0_186_150">
<rect width="22" height="22" fill="white"/>
</clipPath>
</defs>
</svg>
